<svg xmlns="http://www.w3.org/2000/svg" width="20cm" height="20cm" viewBox="301 86 387 399"><path fill="#fff" d="M414 87H560.55V115H414z"/><path fill="none" stroke="#000" stroke-width="2" d="M414 87H560.55V115H414z"/><text x="487.275" y="106" fill="#000" font-family="sans-serif" font-size="16" font-weight="700" text-anchor="middle">ActionManager</text><path fill="#fff" d="M414 115H560.55V123H414z"/><path fill="none" stroke="#000" stroke-width="2" d="M414 115H560.55V123H414z"/><path fill="#fff" d="M414 123H560.55V131H414z"/><path fill="none" stroke="#000" stroke-width="2" d="M414 123H560.55V131H414z"/><path fill="#fff" d="M460 320H513.25V348H460z"/><path fill="none" stroke="#000" stroke-width="2" d="M460 320H513.25V348H460z"/><text x="486.625" y="339" fill="#000" font-family="sans-serif" font-size="16" font-style="italic" font-weight="700" text-anchor="middle">View</text><path fill="#fff" d="M460 348H513.25V356H460z"/><path fill="none" stroke="#000" stroke-width="2" d="M460 348H513.25V356H460z"/><path fill="#fff" d="M460 356H513.25V364H460z"/><path fill="none" stroke="#000" stroke-width="2" d="M460 356H513.25V364H460z"/><g><path fill="#fff" d="M421 204H553.35V232H421z"/><path fill="none" stroke="#000" stroke-width="2" d="M421 204H553.35V232H421z"/><text x="487.175" y="223" fill="#000" font-family="sans-serif" font-size="16" font-weight="700" text-anchor="middle">ViewManager</text><path fill="#fff" d="M421 232H553.35V240H421z"/><path fill="none" stroke="#000" stroke-width="2" d="M421 232H553.35V240H421z"/><path fill="#fff" d="M421 240H553.35V248H421z"/><path fill="none" stroke="#000" stroke-width="2" d="M421 240H553.35V248H421z"/></g><g><path fill="none" stroke="#000" stroke-width="2" d="M487.275 157.177L487.275 174.5 487.175 174.5 487.175 202.994"/><path fill="#000" d="M487.275 132.006L492.075 146.006 487.275 160.006 482.475 146.006z"/><path fill="none" stroke="#000" stroke-width="2" d="M487.275 132.006L492.075 146.006 487.275 160.006 482.475 146.006z"/><text x="491.175" y="198.994" fill="#000" font-family="monospace" font-size="12.8">1</text></g><g><path fill="none" stroke="#000" stroke-width="2" d="M487.175 274.177L487.175 291 486.625 291 486.625 318.994"/><path fill="#000" d="M487.175 249.006L491.975 263.006 487.175 277.006 482.375 263.006z"/><path fill="none" stroke="#000" stroke-width="2" d="M487.175 249.006L491.975 263.006 487.175 277.006 482.375 263.006z"/><text x="490.625" y="314.994" fill="#000" font-family="monospace" font-size="12.8">1..*</text></g><g><path fill="#fff" d="M302 440H401.1V468H302z"/><path fill="none" stroke="#000" stroke-width="2" d="M302 440H401.1V468H302z"/><text x="351.55" y="459" fill="#000" font-family="sans-serif" font-size="16" font-weight="700" text-anchor="middle">FormView</text><path fill="#fff" d="M302 468H401.1V476H302z"/><path fill="none" stroke="#000" stroke-width="2" d="M302 468H401.1V476H302z"/><path fill="#fff" d="M302 476H401.1V484H302z"/><path fill="none" stroke="#000" stroke-width="2" d="M302 476H401.1V484H302z"/></g><g><path fill="#fff" d="M443.8 438.8H529.9V466.8H443.8z"/><path fill="none" stroke="#000" stroke-width="2" d="M443.8 438.8H529.9V466.8H443.8z"/><text x="486.85" y="457.8" fill="#000" font-family="sans-serif" font-size="16" font-weight="700" text-anchor="middle">ListView</text><path fill="#fff" d="M443.8 466.8H529.9V474.8H443.8z"/><path fill="none" stroke="#000" stroke-width="2" d="M443.8 466.8H529.9V474.8H443.8z"/><path fill="#fff" d="M443.8 474.8H529.9V482.8H443.8z"/><path fill="none" stroke="#000" stroke-width="2" d="M443.8 474.8H529.9V482.8H443.8z"/></g><g><path fill="#fff" d="M564.8 438.8H686.3V466.8H564.8z"/><path fill="none" stroke="#000" stroke-width="2" d="M564.8 438.8H686.3V466.8H564.8z"/><text x="625.55" y="457.8" fill="#000" font-family="sans-serif" font-size="16" font-weight="700" text-anchor="middle">KanbanView</text><path fill="#fff" d="M564.8 466.8H686.3V474.8H564.8z"/><path fill="none" stroke="#000" stroke-width="2" d="M564.8 466.8H686.3V474.8H564.8z"/><path fill="#fff" d="M564.8 474.8H686.3V482.8H564.8z"/><path fill="none" stroke="#000" stroke-width="2" d="M564.8 474.8H686.3V482.8H564.8z"/></g><g><path fill="none" stroke="#000" stroke-dasharray="8" stroke-width="2" d="M486.625 382.236L486.625 410 351.55 410 351.55 440"/><path fill="#fff" d="M494.625 382.236L486.625 366.236 478.625 382.236z"/><path fill="none" stroke="#000" stroke-width="2" d="M494.625 382.236L486.625 366.236 478.625 382.236z"/></g><g><path fill="none" stroke="#000" stroke-dasharray="8" stroke-width="2" d="M486.625 383.242L486.625 409.903 486.85 409.903 486.85 438.8"/><path fill="#fff" d="M494.625 383.242L486.625 367.242 478.625 383.242z"/><path fill="none" stroke="#000" stroke-width="2" d="M494.625 383.242L486.625 367.242 478.625 383.242z"/></g><g><path fill="none" stroke="#000" stroke-dasharray="8" stroke-width="2" d="M486.625 383.242L486.625 409.903 625.55 409.903 625.55 438.8"/><path fill="#fff" d="M494.625 383.242L486.625 367.242 478.625 383.242z"/><path fill="none" stroke="#000" stroke-width="2" d="M494.625 383.242L486.625 367.242 478.625 383.242z"/></g></svg>