<svg xmlns="http://www.w3.org/2000/svg" xmlns:svg="http://www.w3.org/2000/svg" id="svg889" width="680" height="143" version="1.1"><metadata id="metadata895"/><g id="g887" fill="none" fill-rule="evenodd"><g id="g881" fill-rule="nonzero"><path id="path875" fill="#888" d="M397.168 143.475c-30.083 0-54.47-24.387-54.47-54.47 0-30.084 24.387-54.472 54.47-54.472 30.084 0 54.471 24.388 54.471 54.471 0 30.084-24.387 54.471-54.47 54.471zm0-22.365c17.732 0 32.106-14.375 32.106-32.106S414.9 56.9 397.168 56.9c-17.73 0-32.105 14.374-32.105 32.105 0 17.731 14.374 32.106 32.105 32.106zm-115.435 22.365c-30.083 0-54.47-24.387-54.47-54.47 0-30.084 24.387-54.472 54.47-54.472 30.084 0 54.471 24.388 54.471 54.471 0 30.084-24.387 54.471-54.47 54.471zm0-22.365c17.732 0 32.106-14.375 32.106-32.106S299.465 56.9 281.733 56.9c-17.73 0-32.105 14.374-32.105 32.105 0 17.731 14.374 32.106 32.105 32.106z"/><path id="path877" fill="#888" d="M222.306 88.575l.001.43c0 30.083-24.387 54.47-54.47 54.47-30.084 0-54.471-24.387-54.471-54.47 0-30.084 24.387-54.472 54.47-54.472a54.23 54.23 0 0 1 32.84 11.009V10.825C200.676 4.847 205.52 0 211.498 0c5.977 0 10.822 4.851 10.822 10.825v77.191c0 .188-.005.374-.014.559zm-54.47 32.535c17.732 0 32.106-14.375 32.106-32.106S185.568 56.9 167.837 56.9c-17.732 0-32.106 14.374-32.106 32.105 0 17.731 14.374 32.106 32.106 32.106z"/><path id="path879" fill="#9C5789" d="M54.97 143.354C24.887 143.354.5 118.967.5 88.884.5 58.8 24.887 34.411 54.97 34.411c30.084 0 54.471 24.388 54.471 54.471 0 30.084-24.387 54.471-54.47 54.471zm-.5-22.147c17.732 0 32.106-14.374 32.106-32.106 0-17.73-14.374-32.105-32.105-32.105-17.731 0-32.105 14.374-32.105 32.105 0 17.732 14.374 32.106 32.105 32.106z"/></g><g id="text885" fill="#8f8f8f" aria-label="IAP" font-family="Helvetica" font-size="134" letter-spacing="-4.438"><path id="path903" d="M 503.996,45.314 H 491.4 V 143 h 12.596 z"/><path id="path905" d="m 572.41003,113.654 10.05,29.346 h 13.936 l -34.304,-97.686 h -16.08 l -34.84,97.686 h 13.266 l 10.318,-29.346 z m -3.484,-10.452 h -31.088 l 16.08,-44.488 z"/><path id="path907" d="m 618.61984,101.594 h 30.686 c 7.638,0 13.668,-2.278 18.894,-6.968 5.896,-5.36 8.442,-11.658 8.442,-20.636 0,-18.358 -10.854,-28.676 -30.15,-28.676 h -40.334 V 143 h 12.462 z m 0,-10.988 V 56.302 h 25.996 c 11.926,0 19.028,6.432 19.028,17.152 0,10.72 -7.102,17.152 -19.028,17.152 z"/></g></g></svg>